<svg xmlns="http://www.w3.org/2000/svg" viewBox="0 0 900 520"><defs><linearGradient id="bg" x1="0" x2="1"><stop stop-color="#073b3d"/><stop offset="1" stop-color="#123c38"/></linearGradient><linearGradient id="book" x1="0" x2="1"><stop stop-color="#0f766e"/><stop offset="1" stop-color="#052b2d"/></linearGradient><filter id="glow"><feGaussianBlur stdDeviation="18"/></filter></defs><rect width="900" height="520" rx="38" fill="url(#bg)"/><circle cx="760" cy="100" r="90" fill="#f97316" opacity=".18" filter="url(#glow)"/><path d="M80 430h760" stroke="#d7c19c" stroke-width="12" opacity=".45"/><g transform="translate(500 275)"><rect x="0" y="105" width="275" height="48" rx="12" fill="#073b3d" stroke="#5d8b84"/><rect x="25" y="62" width="245" height="46" rx="12" fill="#0f766e" stroke="#79a99f"/><rect x="5" y="20" width="280" height="45" rx="12" fill="#0b4f50" stroke="#5d8b84"/><path d="M35 42h210M55 84h170M30 128h210" stroke="#fff7e6" opacity=".35" stroke-width="4"/></g><g transform="translate(690 90)"><path d="M45 190V60" stroke="#242b27" stroke-width="16"/><path d="M45 65L5 25h90z" fill="#f97316"/><ellipse cx="45" cy="66" rx="54" ry="18" fill="#ffb057" opacity=".28"/></g><g transform="translate(390 230)"><rect x="0" y="90" width="80" height="105" rx="12" fill="#b86c38"/><path d="M40 90C0 55 15 15 35 0c8 34 25 48 5 90M42 90c15-50 58-55 73-48-14 35-40 53-73 48" fill="#159b83"/><path d="M42 90c-5-38-30-57-55-57 4 33 24 55 55 57" fill="#0f766e"/></g><g font-family="Arial" font-weight="700" text-anchor="middle"><g transform="translate(500 100) rotate(-8)"><rect width="74" height="74" rx="18" fill="#0f766e"/><text x="37" y="47" font-size="34" fill="#fff7e6">&lt;/&gt;</text></g><g transform="translate(610 145) rotate(7)"><rect width="74" height="74" rx="18" fill="#f97316"/><text x="37" y="48" font-size="32" fill="#fff7e6">▤</text></g><g transform="translate(420 125) rotate(6)"><rect width="68" height="68" rx="17" fill="#fff7e6"/><text x="34" y="44" font-size="29" fill="#0f766e">□</text></g><g transform="translate(735 215) rotate(-6)"><rect width="68" height="68" rx="17" fill="#f97316"/><text x="34" y="46" font-size="31" fill="#fff7e6">✦</text></g></g></svg>